<?xml version="1.0" standalone="no"?>
<!DOCTYPE svg PUBLIC "-//W3C//DTD SVG 20010904//EN"
 "http://www.w3.org/TR/2001/REC-SVG-20010904/DTD/svg10.dtd">
<svg version="1.0" xmlns="http://www.w3.org/2000/svg"
 width="556.000000pt" height="340.000000pt" viewBox="0 0 556.000000 340.000000"
 preserveAspectRatio="xMidYMid meet">

<g transform="translate(0.000000,340.000000) scale(0.100000,-0.100000)"
fill="#E20005" stroke="none">
<path d="M2779 3203 l-104 -108 199 -3 c109 -1 201 0 204 2 4 5 -174 209 -187
214 -4 1 -54 -46 -112 -105z"/>
<path d="M2557 2972 c-31 -32 -57 -61 -57 -65 0 -4 169 -7 376 -7 207 0 374 4
372 9 -1 4 -26 34 -55 65 l-52 56 -263 0 -264 0 -57 -58z"/>
<path d="M2352 2767 c-23 -23 -42 -46 -42 -50 0 -4 93 -7 208 -7 l207 0 28
-35 28 -35 349 0 c193 0 350 3 350 6 0 3 -32 41 -71 85 l-72 79 -471 0 -472 0
-42 -43z"/>
<path d="M2092 2507 c-23 -23 -42 -46 -42 -50 0 -4 204 -7 453 -7 l452 0 30
-35 30 -34 353 -7 c193 -4 352 -4 352 0 0 4 -34 46 -77 92 l-76 84 -717 0
-716 0 -42 -43z"/>
<path d="M1825 2230 l-49 -50 707 0 708 0 30 -35 31 -35 349 0 c192 0 349 3
349 6 0 3 -32 41 -71 85 l-72 79 -966 0 -967 0 -49 -50z"/>
<path d="M1495 1900 l-110 -110 370 0 369 0 -27 28 c-15 15 -27 31 -27 35 0 4
317 7 704 7 l704 0 31 -35 31 -35 349 2 350 3 -96 108 -95 107 -1222 0 -1221
0 -110 -110z"/>
<path d="M1250 1650 l-42 -50 190 0 190 0 35 -40 34 -40 347 0 c204 0 346 4
344 9 -1 5 -34 45 -73 90 l-70 80 -457 1 -456 0 -42 -50z"/>
<path d="M3375 1650 l-49 -50 191 0 191 0 36 -40 36 -40 349 2 349 3 -76 87
-77 88 -450 0 -451 0 -49 -50z"/>
<path d="M985 1380 l-49 -50 446 0 446 0 35 -40 34 -40 347 0 c204 0 346 4
344 9 -1 5 -34 45 -73 90 l-70 80 -705 1 -706 0 -49 -50z"/>
<path d="M3105 1380 l-49 -50 446 0 446 0 36 -40 36 -40 346 0 c202 0 344 4
342 9 -1 5 -34 45 -73 90 l-70 80 -705 1 -706 0 -49 -50z"/>
<path d="M725 1120 l-49 -50 691 0 691 0 36 -40 36 -40 346 0 c212 0 344 4
342 9 -1 6 -34 46 -73 90 l-70 81 -950 0 -951 0 -49 -50z"/>
<path d="M2845 1120 l-49 -50 691 0 691 0 36 -40 36 -40 346 0 c212 0 344 4
342 9 -1 6 -34 46 -73 90 l-70 81 -950 0 -951 0 -49 -50z"/>
<path d="M462 857 c-23 -23 -42 -46 -42 -50 0 -4 899 -7 1999 -7 l1999 0 36
-40 36 -40 346 0 c212 0 344 4 342 9 -1 6 -34 46 -73 90 l-70 81 -2265 0
-2266 0 -42 -43z"/>
<path d="M170 555 l-74 -75 2652 0 2653 0 -18 23 c-10 13 -38 46 -63 75 l-45
52 -2515 0 -2516 0 -74 -75z"/>
</g>
</svg>
