<svg width="157" height="102" viewBox="0 0 157 102" fill="none" xmlns="http://www.w3.org/2000/svg">
    <path d="M70 14.2285C46.5052 9.20191 25.7423 19.8136 17 42.1542V55H70V14.2285Z" fill="#0055DD"/>
    <path d="M54 50.0971V102H29.2336C15.3644 102 -0.437817 91.9291 0.00927397 71.2614C0.999929 41.5306 29.178 39.7717 30.7196 40.0189C32.2611 40.266 35.7246 39.6129 44.5888 43.0423C48.7106 45.1071 50.7224 46.728 54 50.0971Z" fill="#00AAFF"/>
    <path d="M54 50C54 22.3858 76.3858 0 104 0H107C134.614 0 157 22.3858 157 50V52C157 79.6142 134.614 102 107 102H54V50Z" fill="white"/>
    <path d="M105 102L54 50V102H105Z" fill="#AAEEFF"/>
    </svg>
    