<?xml version="1.0" standalone="no"?>
<!DOCTYPE svg PUBLIC "-//W3C//DTD SVG 20010904//EN"
 "http://www.w3.org/TR/2001/REC-SVG-20010904/DTD/svg10.dtd">
<svg version="1.0" xmlns="http://www.w3.org/2000/svg"
 width="50.000000pt" height="50.000000pt" viewBox="0 0 50.000000 50.000000"
 preserveAspectRatio="xMidYMid meet">
<g transform="translate(0.000000,50.000000) scale(0.100000,-0.100000)"
fill="white" stroke="none">
<path d="M160 469 c-13 -5 -39 -21 -57 -35 l-33 -25 0 30 c0 17 -4 31 -10 31
-5 0 -10 -25 -10 -55 l0 -55 55 0 c59 0 76 17 23 22 l-33 3 39 30 c36 27 46
30 115 30 85 0 118 -16 168 -82 35 -46 44 -142 18 -194 -40 -78 -104 -119
-187 -119 -93 0 -181 72 -196 160 -4 24 -13 45 -21 48 -11 4 -13 -6 -9 -46 6
-63 43 -122 100 -159 62 -41 194 -41 256 0 23 15 54 46 69 69 25 37 28 50 28
128 0 78 -3 91 -28 128 -15 23 -46 54 -69 69 -35 24 -54 28 -117 30 -42 2 -87
-2 -101 -8z"/>
</g>
</svg>
