<svg id="svg" version="1.1" xmlns="http://www.w3.org/2000/svg" xmlns:xlink="http://www.w3.org/1999/xlink" width="400" height="400" viewBox="0, 0, 400,400"><g id="svgg"><path id="path0" d="M174.228 24.972 C 168.586 41.904,168.433 42.152,162.686 43.700 C 147.803 47.707,148.716 47.977,134.450 35.373 L 121.243 23.705 113.356 27.634 C 99.349 34.613,87.528 42.858,87.514 45.659 C 87.506 47.139,88.991 55.131,90.814 63.420 L 94.129 78.490 86.310 86.310 L 78.490 94.129 63.420 90.814 C 55.131 88.991,47.139 87.506,45.659 87.514 C 42.856 87.528,34.612 99.350,27.619 113.387 L 23.673 121.305 35.400 134.440 C 48.093 148.659,47.772 147.565,43.700 162.686 C 42.152 168.433,41.904 168.586,24.972 174.228 L 7.813 179.946 7.813 200.000 L 7.813 220.054 24.972 225.772 C 41.904 231.414,42.152 231.567,43.700 237.314 C 47.707 252.197,47.977 251.284,35.373 265.550 L 23.705 278.757 27.634 286.644 C 34.184 299.791,42.833 312.472,45.259 312.486 C 46.519 312.494,54.512 311.009,63.022 309.187 L 78.494 305.875 86.311 313.692 L 94.129 321.510 90.814 336.580 C 88.991 344.869,87.506 352.861,87.514 354.341 C 87.528 357.144,99.350 365.388,113.387 372.381 L 121.305 376.327 134.440 364.600 C 148.659 351.907,147.565 352.228,162.686 356.300 C 168.433 357.848,168.586 358.096,174.228 375.028 L 179.946 392.187 200.000 392.187 L 220.054 392.187 225.772 375.028 C 231.414 358.096,231.567 357.848,237.314 356.300 C 252.435 352.228,251.341 351.907,265.560 364.600 L 278.695 376.327 286.613 372.381 C 300.650 365.388,312.472 357.144,312.486 354.341 C 312.494 352.861,311.009 344.869,309.186 336.580 L 305.871 321.510 313.689 313.692 L 321.506 305.875 336.978 309.187 C 345.488 311.009,353.481 312.494,354.741 312.486 C 357.167 312.472,365.816 299.791,372.366 286.644 L 376.295 278.757 364.627 265.550 C 352.023 251.284,352.293 252.197,356.300 237.314 C 357.848 231.567,358.096 231.414,375.028 225.772 L 392.187 220.054 392.188 200.000 L 392.188 179.946 375.028 174.228 C 358.096 168.586,357.848 168.433,356.300 162.686 C 352.228 147.565,351.907 148.659,364.600 134.440 L 376.327 121.305 372.381 113.387 C 365.388 99.350,357.144 87.528,354.341 87.514 C 352.861 87.506,344.869 88.991,336.580 90.814 L 321.510 94.129 313.690 86.310 L 305.871 78.490 309.186 63.420 C 311.009 55.131,312.494 47.139,312.486 45.659 C 312.472 42.858,300.651 34.613,286.644 27.634 L 278.757 23.705 265.550 35.373 C 251.284 47.977,252.197 47.707,237.314 43.700 C 231.567 42.152,231.414 41.904,225.772 24.972 L 220.054 7.813 200.000 7.813 L 179.946 7.813 174.228 24.972 M212.119 41.114 L 217.051 57.228 233.916 61.562 C 243.192 63.945,252.188 66.217,253.906 66.611 C 256.141 67.123,260.496 64.192,269.199 56.318 L 281.367 45.308 287.640 48.509 C 292.190 50.830,293.685 52.441,293.081 54.370 C 292.623 55.834,290.969 63.359,289.405 71.094 L 286.561 85.156 300.742 99.277 L 314.922 113.398 327.383 110.890 C 334.236 109.511,341.759 107.894,344.099 107.297 C 347.902 106.327,348.685 106.860,351.465 112.308 L 354.575 118.405 343.648 130.687 C 335.923 139.370,332.924 143.884,333.413 146.094 C 333.794 147.813,336.052 156.795,338.432 166.056 L 342.758 182.893 358.953 187.828 L 375.148 192.763 374.683 199.775 L 374.219 206.787 358.458 212.033 L 342.696 217.278 338.485 233.249 C 336.169 242.032,333.910 250.977,333.465 253.125 C 332.805 256.312,334.693 259.281,343.714 269.244 L 354.772 281.456 351.461 287.347 L 348.150 293.239 331.538 289.919 L 314.926 286.599 300.743 300.721 L 286.561 314.844 289.405 328.906 C 290.969 336.641,292.592 344.067,293.011 345.409 C 293.519 347.032,291.750 348.986,287.726 351.248 L 281.677 354.647 269.354 343.676 C 255.690 331.510,257.659 331.901,237.500 337.339 C 231.055 339.078,223.873 340.887,221.541 341.359 C 217.696 342.139,216.823 343.742,212.166 358.579 L 207.031 374.940 200.000 374.940 L 192.969 374.940 187.834 358.579 C 183.177 343.742,182.304 342.139,178.459 341.359 C 176.127 340.887,168.945 339.078,162.500 337.339 C 142.341 331.901,144.310 331.510,130.646 343.676 L 118.323 354.647 112.274 351.248 C 108.250 348.986,106.481 347.032,106.989 345.409 C 107.408 344.067,109.031 336.641,110.595 328.906 L 113.439 314.844 99.224 300.689 L 85.010 286.534 68.677 289.945 C 51.318 293.571,51.979 293.707,47.592 285.611 C 45.339 281.453,45.494 281.162,56.321 269.205 C 65.312 259.276,67.195 256.311,66.535 253.125 C 66.090 250.977,63.831 242.032,61.515 233.249 L 57.304 217.278 41.542 212.033 L 25.781 206.787 25.316 199.758 L 24.851 192.729 41.061 187.752 L 57.271 182.775 61.583 165.997 C 63.955 156.769,66.206 147.813,66.587 146.094 C 67.076 143.884,64.077 139.370,56.352 130.687 L 45.425 118.405 48.535 112.308 C 51.068 107.343,52.291 106.366,55.120 107.046 C 57.030 107.506,64.533 109.143,71.791 110.684 L 84.988 113.487 99.214 99.322 L 113.439 85.156 110.595 71.094 C 109.031 63.359,107.377 55.834,106.919 54.370 C 106.315 52.441,107.810 50.830,112.360 48.509 L 118.633 45.308 130.801 56.318 C 139.504 64.192,143.859 67.123,146.094 66.611 C 147.813 66.217,156.808 63.945,166.084 61.562 L 182.949 57.228 187.881 41.114 L 192.813 25.000 200.000 25.000 L 207.187 25.000 212.119 41.114 M175.781 89.712 C 93.731 108.649,60.267 204.132,112.305 270.834 C 155.380 326.047,243.959 326.208,287.389 271.151 C 353.265 187.641,278.451 66.018,175.781 89.712 M219.531 107.038 C 246.230 112.644,273.002 133.428,284.932 157.813 C 331.888 253.787,208.918 342.062,133.428 266.572 C 66.952 200.096,127.595 87.736,219.531 107.038 " stroke="none" fill="white" fill-rule="evenodd"></path></g></svg>